<?xml version="1.0" standalone="no"?>
<!DOCTYPE svg PUBLIC "-//W3C//DTD SVG 20010904//EN"
 "http://www.w3.org/TR/2001/REC-SVG-20010904/DTD/svg10.dtd">
<svg version="1.0" xmlns="http://www.w3.org/2000/svg"
 width="1280.000000pt" height="1280.000000pt" viewBox="0 0 1280.000000 1280.000000"
 preserveAspectRatio="xMidYMid meet">
<metadata>
Created by potrace 1.15, written by Peter Selinger 2001-2017
</metadata>
<g transform="translate(0.000000,1280.000000) scale(0.100000,-0.100000)"
fill="#000000" stroke="none">
<path d="M6070 12794 c-228 -12 -547 -48 -752 -84 -32 -5 -82 -14 -110 -19
-121 -21 -405 -88 -558 -132 -1348 -386 -2524 -1194 -3367 -2314 -472 -626
-824 -1335 -1042 -2095 -44 -153 -111 -437 -132 -557 -5 -29 -14 -79 -19 -110
-24 -136 -51 -348 -72 -553 -17 -170 -17 -895 0 -1055 41 -386 51 -456 103
-720 289 -1479 1108 -2819 2301 -3768 887 -705 1945 -1163 3053 -1321 360 -52
501 -61 925 -61 373 0 448 4 735 36 1053 116 2104 521 2975 1145 1439 1030
2381 2578 2629 4319 11 78 24 188 43 375 17 169 17 861 0 1040 -30 317 -68
571 -121 820 -169 787 -480 1523 -926 2195 -621 934 -1467 1684 -2465 2186
-286 143 -502 235 -789 333 -440 151 -932 262 -1356 306 -60 6 -148 16 -195
21 -85 10 -736 20 -860 13z m543 -2254 c6 -6 25 -276 33 -485 l7 -160 -252 0
-251 -1 0 46 c0 57 17 396 26 512 6 78 9 87 28 91 28 7 403 3 409 -3z m-698
-42 c-24 -107 -67 -432 -78 -588 l-4 -55 -64 -13 c-584 -122 -1023 -316 -1474
-651 l-109 -81 -19 47 c-10 27 -20 49 -22 51 -2 2 -37 -19 -78 -47 -338 -228
-744 -654 -943 -991 -52 -88 -63 -101 -92 -106 -18 -4 -100 5 -190 20 -86 14
-169 27 -184 28 -16 1 -28 8 -28 15 0 21 127 265 210 403 632 1049 1705 1779
2885 1964 55 8 111 17 125 19 62 10 71 8 65 -15z m1215 -14 c1115 -193 2132
-870 2754 -1833 120 -186 286 -493 286 -530 0 -6 -11 -11 -24 -11 -38 0 -359
-56 -492 -85 -65 -15 -123 -28 -128 -28 -4 -1 -40 52 -78 118 -398 688 -969
1199 -1682 1505 -213 91 -506 180 -728 220 l-66 12 -7 71 c-18 198 -63 515
-82 581 -5 17 -1 18 48 11 30 -3 119 -18 199 -31z m-588 -2160 l45 -6 -9 -41
c-5 -22 -7 -46 -4 -53 4 -9 -36 -12 -174 -12 -138 0 -178 3 -174 12 3 7 1 31
-4 54 l-10 41 37 4 c64 7 247 7 293 1z m-664 -111 c2 -21 5 -45 8 -54 3 -13
-16 -23 -88 -49 -336 -119 -638 -340 -851 -623 l-57 -76 -49 22 c-57 26 -58
22 27 137 72 96 216 245 312 323 167 134 394 262 580 327 112 38 115 38 118
-7z m1201 -8 c312 -118 596 -321 805 -574 64 -78 131 -171 124 -174 -1 -2 -24
-12 -50 -24 l-47 -22 -58 76 c-213 283 -515 504 -850 623 -83 29 -92 35 -88
54 3 11 7 36 8 54 2 32 3 33 35 27 18 -3 73 -21 121 -40z m-4354 -386 c93 -25
157 -47 169 -59 20 -19 19 -21 -38 -197 -32 -98 -61 -189 -65 -203 -15 -51
-44 -48 -226 24 -93 37 -171 69 -173 71 -9 9 75 283 115 377 18 44 -4 45 218
-13z m7585 -31 c28 -75 100 -308 100 -327 0 -9 -79 -41 -385 -157 l-220 -83
-23 77 c-12 42 -45 145 -73 227 -28 83 -53 157 -55 165 -4 11 16 21 83 39 304
83 520 140 530 140 6 1 26 -36 43 -81z m-7810 -682 c85 -43 166 -89 179 -102
l25 -23 -18 -133 c-45 -342 -26 -730 55 -1132 70 -347 158 -559 424 -1021 114
-199 291 -484 418 -674 l89 -134 98 6 98 6 -2 -24 c-2 -13 -27 -66 -57 -117
-29 -51 -90 -165 -135 -253 l-82 -159 -107 104 c-644 632 -1068 1475 -1195
2380 -20 140 -40 425 -40 570 0 283 62 833 89 793 3 -6 76 -45 161 -87z m8004
-96 c107 -729 19 -1475 -253 -2152 -210 -525 -540 -1020 -936 -1408 l-106
-104 -88 169 c-91 176 -217 395 -234 407 -6 3 16 34 49 70 484 514 802 1151
913 1828 54 331 60 567 25 1005 l-7 81 124 54 c170 73 463 220 468 234 8 18
27 -62 45 -184z m-5829 115 c22 -11 42 -20 44 -22 2 -1 -15 -58 -38 -126 -22
-69 -41 -129 -41 -135 0 -6 -4 -22 -9 -35 -9 -23 -12 -24 -60 -14 -34 6 -51
15 -51 24 0 17 26 125 40 163 32 91 64 170 69 168 3 -2 24 -12 46 -23z m3528
-42 c38 -101 65 -187 72 -236 l7 -44 -52 -10 c-50 -10 -52 -10 -61 14 -5 13
-9 29 -9 35 0 6 -19 67 -42 136 -23 69 -37 127 -32 129 5 2 25 12 44 22 19 11
38 19 41 20 3 1 18 -29 32 -66z m-3647 -643 c13 0 24 -3 24 -7 0 -5 5 -71 10
-147 24 -329 121 -614 304 -896 l75 -115 -36 -37 c-35 -35 -38 -37 -55 -21
-69 63 -249 396 -307 568 -57 170 -100 417 -101 577 0 88 5 99 37 87 13 -5 35
-9 49 -9z m3774 -75 c-1 -93 -24 -279 -49 -390 -54 -238 -146 -451 -286 -660
-82 -122 -84 -123 -128 -77 l-36 37 75 115 c183 282 280 567 304 896 5 76 10
142 10 147 0 4 12 7 28 8 15 0 36 4 47 8 28 12 35 -4 35 -84z m-3063 -1383
c26 -21 77 -58 113 -82 106 -70 102 -64 73 -116 -16 -29 -30 -43 -39 -40 -29
11 -181 117 -227 158 l-48 43 31 38 c17 20 35 37 40 37 4 0 30 -17 57 -38z
m2363 1 l33 -37 -49 -43 c-50 -44 -197 -147 -226 -158 -11 -5 -23 6 -41 39
-29 52 -33 46 73 116 36 24 87 61 113 82 27 21 52 38 57 38 4 0 23 -17 40 -37z
m-1685 -337 c154 -41 284 -58 455 -58 171 0 301 17 455 58 159 42 148 43 178
-10 l26 -46 -37 -16 c-40 -16 -191 -56 -282 -73 -311 -59 -694 -27 -977 80
l-22 8 26 47 c30 53 18 52 178 10z m2713 -933 c-1 -5 64 -107 144 -228 80
-121 157 -241 172 -266 l27 -47 -53 -44 c-59 -49 -239 -178 -278 -198 -22 -12
-27 -10 -58 26 -49 56 -217 264 -300 371 l-72 92 33 24 c17 13 70 50 117 82
47 32 125 89 173 127 89 68 99 74 95 61z m-4423 -59 c39 -30 126 -94 195 -141
69 -48 127 -88 128 -89 10 -7 -394 -504 -409 -504 -21 0 -306 205 -338 243 -9
11 11 49 98 185 127 199 239 362 249 362 4 0 39 -25 77 -56z m663 -413 c298
-152 763 -281 1157 -322 154 -16 536 -16 685 -1 367 39 725 131 1035 267 197
86 180 82 212 44 63 -77 192 -218 304 -332 107 -111 117 -123 101 -135 -35
-28 -322 -163 -467 -220 -1101 -436 -2336 -380 -3395 153 -161 82 -162 56 10
235 82 85 182 194 222 242 40 48 79 87 86 87 7 1 29 -8 50 -18z"/>
</g>
</svg>
